<?xml version="1.0" encoding="utf-8"?>
<!-- Generator: Adobe Illustrator 17.0.0, SVG Export Plug-In . SVG Version: 6.00 Build 0)  -->
<!DOCTYPE svg PUBLIC "-//W3C//DTD SVG 1.1//EN" "http://www.w3.org/Graphics/SVG/1.1/DTD/svg11.dtd">
<svg version="1.1" id="Layer_1" xmlns="http://www.w3.org/2000/svg" xmlns:xlink="http://www.w3.org/1999/xlink" x="0px" y="0px"
	 width="220px" height="100px" viewBox="0 0 220 100" enable-background="new 0 0 220 100" xml:space="preserve">
<g id="LOGO_LACTOLANDA_1_">
	<path fill="#004FA3" d="M209.074,86.713c0.422,0,0.784,0.152,1.081,0.455c0.298,0.3,0.445,0.665,0.445,1.084
		c0,0.429-0.15,0.794-0.448,1.094c-0.301,0.3-0.662,0.449-1.078,0.449c-0.425,0-0.787-0.148-1.084-0.449
		c-0.298-0.3-0.445-0.665-0.445-1.094c0-0.42,0.147-0.784,0.445-1.084C208.287,86.864,208.649,86.713,209.074,86.713"/>
	<path fill="#004FA3" d="M209.935,85.871h-0.355c0.307-1.662,0.534-3.357,0.685-5.083c0.15-1.723,0.381-2.882,0.697-3.479
		c0.317-0.594,0.726-0.891,1.232-0.891c0.269,0,0.509,0.119,0.723,0.358c0.211,0.239,0.317,0.529,0.317,0.868
		c0,0.277-0.051,0.584-0.157,0.92c-0.109,0.332-0.435,1.078-0.985,2.23C211.179,82.724,210.46,84.415,209.935,85.871"/>
	<path fill="#004FA3" d="M201.604,86.713c0.422,0,0.784,0.152,1.081,0.455c0.298,0.3,0.445,0.665,0.445,1.084
		c0,0.429-0.15,0.794-0.448,1.094c-0.301,0.3-0.662,0.449-1.078,0.449c-0.425,0-0.787-0.148-1.084-0.449
		c-0.298-0.3-0.445-0.665-0.445-1.094c0-0.42,0.147-0.784,0.445-1.084C200.818,86.864,201.179,86.713,201.604,86.713"/>
	<path fill="#004FA3" d="M202.465,85.871h-0.355c0.307-1.662,0.534-3.357,0.685-5.083c0.15-1.723,0.381-2.882,0.697-3.479
		c0.317-0.594,0.726-0.891,1.232-0.891c0.269,0,0.509,0.119,0.723,0.358c0.211,0.239,0.317,0.529,0.317,0.868
		c0,0.277-0.051,0.584-0.157,0.92c-0.109,0.332-0.435,1.078-0.985,2.23C203.71,82.724,202.99,84.415,202.465,85.871"/>
	<path fill="#004FA3" d="M33.651,89.53H23.5l0.102-0.348c0.605,0,1.049-0.12,1.324-0.355c0.278-0.239,0.538-0.768,0.774-1.594
		l2.361-8.236c0.131-0.452,0.198-0.81,0.198-1.068c0-0.252-0.093-0.452-0.282-0.604c-0.189-0.152-0.557-0.239-1.107-0.265
		l0.106-0.352h6.101l-0.102,0.352c-0.589,0.013-1.027,0.145-1.318,0.397c-0.291,0.252-0.547,0.765-0.774,1.539l-2.156,7.536
		c-0.275,0.959-0.409,1.543-0.409,1.749c0,0.126,0.067,0.245,0.208,0.355s0.368,0.165,0.681,0.165c1.036,0,2.038-0.239,3.004-0.717
		c0.966-0.481,1.782-1.194,2.45-2.146h0.394L33.651,89.53z M45.037,80.897l-1.817,6.287l-0.189,0.768
		c-0.019,0.094-0.029,0.165-0.029,0.207c0,0.077,0.029,0.142,0.08,0.2c0.054,0.055,0.109,0.084,0.163,0.084
		c0.131,0,0.314-0.1,0.544-0.303c0.096-0.081,0.32-0.371,0.675-0.868l0.329,0.171c-0.445,0.817-0.918,1.414-1.42,1.791
		c-0.502,0.374-1.046,0.562-1.625,0.562c-0.358,0-0.63-0.094-0.816-0.278c-0.189-0.187-0.282-0.423-0.282-0.707
		c0-0.245,0.099-0.7,0.301-1.368l0.224-0.768c-0.726,1.255-1.421,2.143-2.089,2.666c-0.387,0.303-0.8,0.455-1.238,0.455
		c-0.576,0-0.992-0.239-1.248-0.713c-0.256-0.478-0.384-1.013-0.384-1.614c0-0.887,0.269-1.907,0.806-3.056
		c0.538-1.152,1.244-2.075,2.118-2.776c0.72-0.581,1.395-0.871,2.025-0.871c0.349,0,0.63,0.103,0.845,0.307
		c0.211,0.206,0.368,0.581,0.467,1.123l0.339-1.165L45.037,80.897z M42.039,82.695c0-0.51-0.08-0.881-0.237-1.107
		c-0.112-0.158-0.266-0.236-0.457-0.236c-0.195,0-0.394,0.094-0.602,0.284c-0.419,0.391-0.87,1.181-1.353,2.379
		c-0.483,1.194-0.726,2.224-0.726,3.095c0,0.336,0.054,0.575,0.163,0.723c0.109,0.149,0.23,0.223,0.361,0.223
		c0.281,0,0.566-0.165,0.854-0.49c0.409-0.468,0.784-1.039,1.113-1.714C41.745,84.667,42.039,83.615,42.039,82.695z M61.439,76.417
		l-1.059,4.347h-0.31c-0.067-0.681-0.189-1.226-0.365-1.636c-0.262-0.591-0.611-1.049-1.046-1.369
		c-0.432-0.323-0.902-0.484-1.411-0.484c-0.486,0-0.912,0.187-1.276,0.562c-0.368,0.378-0.55,0.8-0.55,1.271
		c0,0.468,0.128,0.926,0.381,1.378c0.253,0.449,0.851,1.13,1.795,2.037c0.755,0.726,1.264,1.349,1.523,1.872
		s0.387,1.091,0.387,1.704c0,0.684-0.179,1.32-0.541,1.898c-0.365,0.581-0.889,1.029-1.58,1.349
		c-0.691,0.319-1.475,0.478-2.348,0.478c-0.538,0-1.212-0.081-2.028-0.242c-0.816-0.161-1.36-0.242-1.628-0.242
		c-0.211,0-0.403,0.036-0.569,0.1c-0.17,0.068-0.377,0.194-0.63,0.384h-0.365l1.136-4.89h0.355c0.08,0.859,0.253,1.588,0.515,2.188
		c0.262,0.604,0.637,1.072,1.126,1.41c0.486,0.336,1.043,0.507,1.667,0.507c0.621,0,1.136-0.207,1.552-0.62s0.624-0.897,0.624-1.452
		c0-0.471-0.118-0.926-0.352-1.362s-0.768-1.068-1.603-1.901s-1.411-1.575-1.731-2.23c-0.23-0.484-0.345-1.004-0.345-1.552
		c0-0.949,0.371-1.772,1.116-2.466c0.742-0.694,1.715-1.039,2.914-1.039c0.544,0,1.257,0.123,2.147,0.368
		c0.518,0.145,0.883,0.216,1.097,0.216c0.179,0,0.342-0.039,0.486-0.116c0.144-0.081,0.313-0.236,0.505-0.468H61.439z
		 M70.108,80.897l-1.817,6.287l-0.189,0.768c-0.019,0.094-0.029,0.165-0.029,0.207c0,0.077,0.029,0.142,0.08,0.2
		c0.054,0.055,0.109,0.084,0.163,0.084c0.131,0,0.313-0.1,0.544-0.303c0.096-0.081,0.32-0.371,0.675-0.868l0.329,0.171
		c-0.445,0.817-0.918,1.414-1.42,1.791c-0.502,0.374-1.046,0.562-1.625,0.562c-0.358,0-0.63-0.094-0.816-0.278
		c-0.189-0.187-0.282-0.423-0.282-0.707c0-0.245,0.099-0.7,0.301-1.368l0.224-0.768c-0.726,1.255-1.421,2.143-2.089,2.666
		c-0.387,0.303-0.8,0.455-1.238,0.455c-0.576,0-0.992-0.239-1.248-0.713c-0.256-0.478-0.384-1.013-0.384-1.614
		c0-0.887,0.269-1.907,0.806-3.056c0.538-1.152,1.244-2.075,2.118-2.776c0.72-0.581,1.395-0.871,2.025-0.871
		c0.349,0,0.63,0.103,0.845,0.307c0.211,0.206,0.368,0.581,0.467,1.123l0.339-1.165L70.108,80.897z M67.111,82.695
		c0-0.51-0.08-0.881-0.237-1.107c-0.112-0.158-0.266-0.236-0.458-0.236c-0.195,0-0.394,0.094-0.602,0.284
		c-0.419,0.391-0.87,1.181-1.353,2.379c-0.483,1.194-0.726,2.224-0.726,3.095c0,0.336,0.054,0.575,0.163,0.723
		c0.109,0.149,0.23,0.223,0.362,0.223c0.281,0,0.566-0.165,0.854-0.49c0.409-0.468,0.784-1.039,1.113-1.714
		C66.816,84.667,67.111,83.615,67.111,82.695z M76.583,76.417l-3.1,10.644c-0.182,0.633-0.272,1.026-0.272,1.184
		c0,0.081,0.025,0.148,0.08,0.207c0.051,0.058,0.109,0.084,0.173,0.084c0.112,0,0.218-0.042,0.317-0.132
		c0.301-0.245,0.637-0.662,1.004-1.246l0.365,0.168c-0.592,0.959-1.177,1.643-1.753,2.053c-0.394,0.278-0.813,0.416-1.254,0.416
		c-0.413,0-0.742-0.113-0.985-0.336c-0.243-0.223-0.365-0.494-0.365-0.807c0-0.236,0.074-0.61,0.224-1.126l2.53-8.717
		c0.138-0.481,0.208-0.797,0.208-0.955c0-0.152-0.067-0.271-0.198-0.361c-0.176-0.126-0.441-0.178-0.797-0.158l0.102-0.362
		l3.161-0.555L76.583,76.417L76.583,76.417z M80.944,80.765l-1.82,6.429c-0.086,0.297-0.131,0.503-0.131,0.617
		c0,0.055,0.022,0.1,0.067,0.132c0.051,0.048,0.109,0.074,0.179,0.074c0.285,0,0.672-0.258,1.152-0.775
		c0.688-0.749,1.408-1.827,2.166-3.234l0.851-2.892l2.371-0.087l-1.798,6.242c-0.15,0.529-0.224,0.833-0.224,0.907
		c0,0.052,0.022,0.103,0.07,0.155c0.045,0.055,0.093,0.081,0.144,0.081c0.086,0,0.173-0.036,0.253-0.113
		c0.224-0.184,0.521-0.552,0.889-1.107l0.32,0.229c-0.867,1.581-1.823,2.372-2.866,2.372c-0.387,0-0.694-0.1-0.915-0.297
		c-0.221-0.2-0.333-0.458-0.333-0.781c0-0.339,0.077-0.771,0.234-1.294l0.461-1.598c-0.812,1.191-1.404,1.994-1.772,2.411
		c-0.563,0.623-1.036,1.039-1.42,1.246c-0.384,0.21-0.752,0.313-1.1,0.313c-0.333,0-0.617-0.123-0.857-0.368
		c-0.24-0.245-0.361-0.558-0.361-0.936c0-0.323,0.077-0.755,0.233-1.298l1.059-3.783c0.176-0.616,0.262-1.033,0.262-1.246
		c0-0.097-0.022-0.178-0.074-0.252c-0.051-0.071-0.134-0.129-0.25-0.171c-0.115-0.039-0.33-0.061-0.64-0.061l0.093-0.358
		l3.196-0.558L80.944,80.765L80.944,80.765z M96.987,76.417l-3.046,10.58c-0.192,0.662-0.288,1.062-0.288,1.201
		c0,0.068,0.022,0.129,0.074,0.181c0.051,0.049,0.102,0.074,0.16,0.074c0.106,0,0.227-0.055,0.365-0.161
		c0.23-0.174,0.512-0.51,0.845-1.001l0.336,0.177c-0.88,1.552-1.849,2.327-2.905,2.327c-0.374,0-0.665-0.1-0.867-0.297
		c-0.205-0.2-0.304-0.452-0.304-0.762c0-0.297,0.08-0.72,0.243-1.268l0.282-0.965c-0.781,1.394-1.459,2.32-2.035,2.782
		c-0.438,0.339-0.861,0.51-1.273,0.51c-0.47,0-0.864-0.194-1.187-0.578s-0.483-0.946-0.483-1.682c0-0.939,0.208-1.865,0.617-2.779
		c0.413-0.917,0.889-1.678,1.43-2.288c0.541-0.613,1.056-1.049,1.548-1.31c0.489-0.261,0.972-0.394,1.446-0.394
		c0.243,0,0.461,0.052,0.653,0.152c0.189,0.1,0.406,0.29,0.653,0.568l0.691-2.356c0.17-0.578,0.253-0.994,0.253-1.246
		c0-0.152-0.055-0.281-0.166-0.387c-0.112-0.11-0.262-0.161-0.451-0.161c-0.086,0-0.195,0.01-0.326,0.026l0.093-0.368l3.084-0.574
		h0.558C96.987,76.418,96.987,76.417,96.987,76.417z M92.863,82.411c0-0.384-0.074-0.665-0.224-0.842
		c-0.15-0.174-0.323-0.265-0.525-0.265c-0.198,0-0.416,0.103-0.646,0.313c-0.445,0.403-0.909,1.213-1.392,2.433
		c-0.486,1.22-0.726,2.246-0.726,3.079c0,0.303,0.051,0.526,0.16,0.671c0.106,0.145,0.224,0.216,0.355,0.216
		c0.217,0,0.438-0.1,0.656-0.303c0.531-0.478,1.056-1.301,1.571-2.472C92.608,84.073,92.863,83.13,92.863,82.411z M111.383,76.417
		l-3.046,10.58c-0.192,0.662-0.288,1.062-0.288,1.201c0,0.068,0.022,0.129,0.073,0.181c0.051,0.049,0.102,0.074,0.16,0.074
		c0.106,0,0.227-0.055,0.365-0.161c0.23-0.174,0.512-0.51,0.845-1.001l0.336,0.177c-0.88,1.552-1.849,2.327-2.905,2.327
		c-0.374,0-0.666-0.1-0.867-0.297c-0.205-0.2-0.304-0.452-0.304-0.762c0-0.297,0.08-0.72,0.243-1.268l0.282-0.965
		c-0.781,1.394-1.459,2.32-2.035,2.782c-0.438,0.339-0.861,0.51-1.273,0.51c-0.47,0-0.864-0.194-1.187-0.578
		s-0.483-0.946-0.483-1.682c0-0.939,0.208-1.865,0.617-2.779c0.413-0.917,0.889-1.678,1.43-2.288
		c0.541-0.613,1.056-1.049,1.548-1.31c0.489-0.261,0.972-0.394,1.446-0.394c0.243,0,0.461,0.052,0.653,0.152
		c0.189,0.1,0.406,0.29,0.653,0.568l0.691-2.356c0.17-0.578,0.253-0.994,0.253-1.246c0-0.152-0.055-0.281-0.166-0.387
		c-0.112-0.11-0.262-0.161-0.451-0.161c-0.086,0-0.195,0.01-0.326,0.026l0.093-0.368l3.084-0.574h0.559
		C111.383,76.418,111.383,76.417,111.383,76.417z M107.26,82.411c0-0.384-0.074-0.665-0.224-0.842
		c-0.15-0.174-0.323-0.265-0.525-0.265c-0.198,0-0.416,0.103-0.646,0.313c-0.445,0.403-0.909,1.213-1.392,2.433
		c-0.486,1.22-0.726,2.246-0.726,3.079c0,0.303,0.051,0.526,0.16,0.671c0.106,0.145,0.224,0.216,0.355,0.216
		c0.217,0,0.438-0.1,0.656-0.303c0.531-0.478,1.056-1.301,1.571-2.472C107.004,84.073,107.26,83.13,107.26,82.411z M113.514,85.983
		c-0.058,0.41-0.086,0.749-0.086,1.013c0,0.471,0.137,0.852,0.409,1.133c0.272,0.284,0.633,0.426,1.091,0.426
		c0.438,0,0.877-0.106,1.318-0.32c0.438-0.216,0.95-0.591,1.532-1.126l0.278,0.255c-0.717,0.878-1.417,1.501-2.099,1.872
		c-0.681,0.371-1.433,0.558-2.259,0.558c-1.043,0-1.766-0.252-2.166-0.755c-0.4-0.507-0.598-1.088-0.598-1.749
		c0-1.036,0.297-2.069,0.896-3.102c0.595-1.036,1.408-1.862,2.435-2.488c1.03-0.623,2.06-0.936,3.1-0.936
		c0.525,0,0.921,0.126,1.19,0.378c0.269,0.252,0.403,0.571,0.403,0.955c0,0.462-0.131,0.91-0.393,1.343
		c-0.365,0.594-0.819,1.072-1.369,1.433s-1.164,0.639-1.846,0.826C114.893,85.829,114.282,85.922,113.514,85.983z M113.597,85.493
		c0.55-0.081,0.976-0.194,1.28-0.336c0.301-0.142,0.598-0.368,0.889-0.681s0.544-0.707,0.755-1.181
		c0.211-0.478,0.32-0.923,0.32-1.339c0-0.174-0.051-0.313-0.147-0.416c-0.096-0.1-0.221-0.148-0.371-0.148
		c-0.297,0-0.637,0.21-1.011,0.633C114.624,82.792,114.051,83.95,113.597,85.493z M137.664,76.417l-0.937,4.073h-0.365
		c-0.045-1.11-0.313-1.936-0.809-2.482c-0.499-0.545-1.145-0.817-1.945-0.817c-0.864,0-1.721,0.371-2.578,1.113
		c-0.857,0.746-1.58,1.882-2.175,3.415c-0.48,1.243-0.72,2.469-0.72,3.679c0,1.084,0.262,1.911,0.79,2.482
		c0.528,0.571,1.251,0.855,2.172,0.855c0.742,0,1.421-0.165,2.032-0.491c0.614-0.329,1.232-0.862,1.855-1.601h0.451
		c-0.774,1.175-1.558,1.998-2.348,2.469c-0.79,0.474-1.756,0.71-2.902,0.71c-1.529,0-2.761-0.468-3.695-1.404
		s-1.401-2.159-1.401-3.666c0-1.41,0.371-2.756,1.113-4.041c0.745-1.281,1.814-2.321,3.212-3.111
		c1.395-0.791,2.783-1.184,4.165-1.184c0.525,0,1.177,0.113,1.958,0.339c0.4,0.113,0.678,0.171,0.835,0.171
		c0.313,0,0.627-0.171,0.947-0.51L137.664,76.417L137.664,76.417z M145.828,80.897l-1.817,6.287l-0.189,0.768
		c-0.019,0.094-0.029,0.165-0.029,0.207c0,0.077,0.029,0.142,0.08,0.2c0.054,0.055,0.109,0.084,0.163,0.084
		c0.131,0,0.313-0.1,0.544-0.303c0.096-0.081,0.32-0.371,0.675-0.868l0.329,0.171c-0.445,0.817-0.918,1.414-1.42,1.791
		c-0.502,0.374-1.046,0.562-1.625,0.562c-0.358,0-0.63-0.094-0.816-0.278c-0.189-0.187-0.282-0.423-0.282-0.707
		c0-0.245,0.099-0.7,0.301-1.368l0.224-0.768c-0.726,1.255-1.42,2.143-2.089,2.666c-0.387,0.303-0.8,0.455-1.238,0.455
		c-0.576,0-0.992-0.239-1.248-0.713c-0.256-0.478-0.384-1.013-0.384-1.614c0-0.887,0.269-1.907,0.806-3.056
		c0.538-1.152,1.244-2.075,2.118-2.776c0.72-0.581,1.395-0.871,2.025-0.871c0.349,0,0.63,0.103,0.845,0.307
		c0.211,0.206,0.368,0.581,0.467,1.123l0.339-1.165L145.828,80.897z M142.83,82.695c0-0.51-0.08-0.881-0.237-1.107
		c-0.112-0.158-0.266-0.236-0.458-0.236c-0.195,0-0.394,0.094-0.601,0.284c-0.419,0.391-0.87,1.181-1.353,2.379
		c-0.483,1.194-0.726,2.224-0.726,3.095c0,0.336,0.054,0.575,0.163,0.723c0.109,0.149,0.23,0.223,0.361,0.223
		c0.281,0,0.566-0.165,0.854-0.49c0.409-0.468,0.784-1.039,1.113-1.714C142.536,84.667,142.83,83.615,142.83,82.695z
		 M156.698,76.417l-3.046,10.58c-0.192,0.662-0.288,1.062-0.288,1.201c0,0.068,0.022,0.129,0.074,0.181
		c0.051,0.049,0.102,0.074,0.16,0.074c0.106,0,0.227-0.055,0.365-0.161c0.23-0.174,0.512-0.51,0.845-1.001l0.336,0.177
		c-0.88,1.552-1.849,2.327-2.905,2.327c-0.374,0-0.665-0.1-0.867-0.297c-0.205-0.2-0.304-0.452-0.304-0.762
		c0-0.297,0.08-0.72,0.243-1.268l0.282-0.965c-0.781,1.394-1.459,2.32-2.035,2.782c-0.438,0.339-0.861,0.51-1.273,0.51
		c-0.47,0-0.864-0.194-1.187-0.578s-0.483-0.946-0.483-1.682c0-0.939,0.208-1.865,0.617-2.779c0.413-0.917,0.889-1.678,1.43-2.288
		c0.541-0.613,1.056-1.049,1.548-1.31c0.489-0.261,0.972-0.394,1.446-0.394c0.243,0,0.461,0.052,0.653,0.152
		c0.189,0.1,0.406,0.29,0.653,0.568l0.691-2.356c0.17-0.578,0.253-0.994,0.253-1.246c0-0.152-0.054-0.281-0.166-0.387
		c-0.112-0.11-0.262-0.161-0.451-0.161c-0.086,0-0.195,0.01-0.326,0.026l0.093-0.368l3.084-0.574h0.558V76.417z M152.575,82.411
		c0-0.384-0.074-0.665-0.224-0.842c-0.15-0.174-0.323-0.265-0.525-0.265c-0.198,0-0.416,0.103-0.646,0.313
		c-0.445,0.403-0.909,1.213-1.392,2.433c-0.486,1.22-0.726,2.246-0.726,3.079c0,0.303,0.051,0.526,0.16,0.671
		c0.105,0.145,0.224,0.216,0.355,0.216c0.217,0,0.438-0.1,0.656-0.303c0.531-0.478,1.056-1.301,1.571-2.472
		C152.319,84.073,152.575,83.13,152.575,82.411z M165.023,80.897l-1.817,6.287l-0.189,0.768c-0.019,0.094-0.029,0.165-0.029,0.207
		c0,0.077,0.029,0.142,0.08,0.2c0.054,0.055,0.109,0.084,0.163,0.084c0.131,0,0.313-0.1,0.544-0.303
		c0.096-0.081,0.32-0.371,0.675-0.868l0.329,0.171c-0.445,0.817-0.918,1.414-1.42,1.791c-0.502,0.374-1.046,0.562-1.625,0.562
		c-0.358,0-0.63-0.094-0.816-0.278c-0.189-0.187-0.282-0.423-0.282-0.707c0-0.245,0.099-0.7,0.301-1.368l0.224-0.768
		c-0.726,1.255-1.42,2.143-2.089,2.666c-0.387,0.303-0.8,0.455-1.238,0.455c-0.576,0-0.992-0.239-1.248-0.713
		c-0.256-0.478-0.384-1.013-0.384-1.614c0-0.887,0.269-1.907,0.806-3.056c0.538-1.152,1.244-2.075,2.118-2.776
		c0.72-0.581,1.395-0.871,2.025-0.871c0.349,0,0.63,0.103,0.844,0.307c0.211,0.206,0.368,0.581,0.467,1.123l0.339-1.165
		L165.023,80.897z M162.025,82.695c0-0.51-0.08-0.881-0.237-1.107c-0.112-0.158-0.266-0.236-0.458-0.236
		c-0.195,0-0.394,0.094-0.602,0.284c-0.419,0.391-0.87,1.181-1.353,2.379c-0.483,1.194-0.726,2.224-0.726,3.095
		c0,0.336,0.054,0.575,0.163,0.723c0.109,0.149,0.23,0.223,0.361,0.223c0.281,0,0.566-0.165,0.854-0.49
		c0.409-0.468,0.784-1.039,1.113-1.714C161.731,84.667,162.025,83.615,162.025,82.695z M169.53,89.53l0.112-0.348
		c0.614,0,1.078-0.129,1.392-0.384c0.317-0.255,0.579-0.733,0.784-1.433l2.307-8.085c0.15-0.529,0.224-0.965,0.224-1.304
		c0-0.29-0.086-0.504-0.262-0.642c-0.176-0.139-0.621-0.232-1.34-0.274l0.112-0.352h4.351c2.291,0,3.948,0.468,4.962,1.404
		s1.523,2.25,1.523,3.941c0,1.191-0.234,2.188-0.704,2.995c-0.918,1.578-2.009,2.718-3.269,3.424
		c-1.264,0.707-2.886,1.059-4.866,1.059h-5.326V89.53L169.53,89.53z M177.47,77.466l-2.793,9.718
		c-0.131,0.449-0.198,0.771-0.198,0.965c0,0.178,0.074,0.32,0.214,0.426c0.189,0.145,0.467,0.216,0.835,0.216
		c0.883,0,1.67-0.274,2.361-0.829c0.889-0.713,1.564-1.672,2.031-2.876c0.464-1.204,0.697-2.398,0.697-3.582
		c0-0.859-0.134-1.604-0.403-2.243c-0.269-0.636-0.685-1.12-1.248-1.456C178.574,77.579,178.075,77.466,177.47,77.466z
		 M189.016,80.765l-1.923,6.723c-0.106,0.384-0.157,0.636-0.157,0.758c0,0.068,0.026,0.132,0.083,0.194
		c0.058,0.058,0.115,0.087,0.179,0.087c0.106,0,0.211-0.045,0.317-0.142c0.282-0.232,0.621-0.655,1.014-1.265l0.317,0.19
		c-0.944,1.656-1.945,2.485-3.007,2.485c-0.406,0-0.729-0.116-0.969-0.345c-0.243-0.229-0.362-0.523-0.362-0.875
		c0-0.232,0.051-0.529,0.16-0.888l1.302-4.522c0.125-0.432,0.186-0.762,0.186-0.981c0-0.139-0.058-0.261-0.176-0.371
		c-0.118-0.106-0.282-0.158-0.489-0.158c-0.093,0-0.205,0.003-0.336,0.006l0.122-0.378l3.177-0.52h0.562L189.016,80.765
		L189.016,80.765z M188.133,76.417h2.889l-3.161,3.308h-0.841L188.133,76.417z M198.613,80.897l-1.817,6.287l-0.189,0.768
		c-0.019,0.094-0.029,0.165-0.029,0.207c0,0.077,0.029,0.142,0.08,0.2c0.054,0.055,0.109,0.084,0.163,0.084
		c0.131,0,0.314-0.1,0.544-0.303c0.096-0.081,0.32-0.371,0.675-0.868l0.329,0.171c-0.445,0.817-0.918,1.414-1.42,1.791
		c-0.502,0.374-1.046,0.562-1.625,0.562c-0.358,0-0.63-0.094-0.816-0.278c-0.189-0.187-0.282-0.423-0.282-0.707
		c0-0.245,0.099-0.7,0.301-1.368l0.224-0.768c-0.726,1.255-1.42,2.143-2.089,2.666c-0.387,0.303-0.8,0.455-1.238,0.455
		c-0.576,0-0.992-0.239-1.248-0.713c-0.256-0.478-0.384-1.013-0.384-1.614c0-0.887,0.269-1.907,0.806-3.056
		c0.538-1.152,1.244-2.075,2.118-2.776c0.72-0.581,1.395-0.871,2.025-0.871c0.349,0,0.63,0.103,0.845,0.307
		c0.211,0.206,0.368,0.581,0.467,1.123l0.339-1.165L198.613,80.897z M195.616,82.695c0-0.51-0.08-0.881-0.237-1.107
		c-0.112-0.158-0.266-0.236-0.458-0.236c-0.195,0-0.394,0.094-0.602,0.284c-0.419,0.391-0.87,1.181-1.353,2.379
		c-0.483,1.194-0.726,2.224-0.726,3.095c0,0.336,0.054,0.575,0.163,0.723c0.109,0.149,0.23,0.223,0.361,0.223
		c0.281,0,0.566-0.165,0.854-0.49c0.409-0.468,0.784-1.039,1.113-1.714C195.321,84.667,195.616,83.615,195.616,82.695z"/>
	<path fill="#004FA3" d="M20.32,80.329h0.358c-0.307,1.665-0.534,3.36-0.685,5.083c-0.15,1.723-0.384,2.885-0.697,3.486
		c-0.317,0.597-0.726,0.897-1.235,0.897c-0.275,0-0.515-0.123-0.726-0.365c-0.208-0.242-0.313-0.533-0.313-0.875
		c0-0.278,0.054-0.584,0.16-0.917c0.106-0.336,0.435-1.078,0.985-2.23C19.079,83.479,19.796,81.785,20.32,80.329"/>
	<path fill="#004FA3" d="M21.184,76.404c0.425,0,0.787,0.152,1.081,0.452c0.298,0.297,0.448,0.662,0.448,1.091
		c0,0.423-0.15,0.784-0.448,1.088c-0.294,0.303-0.656,0.455-1.081,0.455c-0.419,0-0.777-0.152-1.078-0.455s-0.451-0.665-0.451-1.088
		c0-0.429,0.15-0.794,0.448-1.091C20.397,76.556,20.759,76.404,21.184,76.404"/>
	<path fill="#004FA3" d="M12.851,80.329h0.358c-0.307,1.665-0.534,3.36-0.685,5.083c-0.15,1.723-0.384,2.885-0.697,3.486
		c-0.317,0.597-0.726,0.897-1.235,0.897c-0.275,0-0.515-0.123-0.726-0.365c-0.208-0.242-0.313-0.533-0.313-0.875
		c0-0.278,0.054-0.584,0.16-0.917c0.106-0.336,0.435-1.078,0.985-2.23C11.609,83.479,12.326,81.785,12.851,80.329"/>
	<path fill="#004FA3" d="M13.714,76.404c0.425,0,0.787,0.152,1.081,0.452c0.298,0.297,0.448,0.662,0.448,1.091
		c0,0.423-0.15,0.784-0.448,1.088c-0.294,0.303-0.656,0.455-1.081,0.455c-0.419,0-0.777-0.152-1.078-0.455s-0.451-0.665-0.451-1.088
		c0-0.429,0.15-0.794,0.448-1.091C12.927,76.556,13.289,76.404,13.714,76.404"/>
	<path fill="#004FA3" d="M66.738,20.532l0.649-2.421c0.459,0.404,0.961,0.714,1.51,0.93c0.55,0.216,1.102,0.325,1.657,0.325
		c0.394,0,0.694-0.064,0.898-0.191c0.207-0.128,0.309-0.313,0.309-0.556c0-0.398-0.415-0.696-1.24-0.89
		c-0.27-0.067-0.489-0.121-0.655-0.17c-0.937-0.261-1.618-0.602-2.045-1.027c-0.423-0.425-0.637-0.975-0.637-1.653
		c0-0.872,0.324-1.568,0.973-2.09c0.649-0.523,1.525-0.784,2.633-0.784c0.571,0,1.15,0.067,1.739,0.2
		c0.588,0.134,1.192,0.34,1.808,0.617l-0.652,2.181c-0.414-0.286-0.838-0.501-1.267-0.65c-0.426-0.149-0.856-0.222-1.285-0.222
		c-0.358,0-0.628,0.058-0.808,0.17c-0.182,0.113-0.272,0.273-0.272,0.489c0,0.319,0.411,0.589,1.234,0.808
		c0.186,0.055,0.327,0.094,0.42,0.115c1.087,0.316,1.84,0.687,2.267,1.109c0.423,0.425,0.637,0.999,0.637,1.723
		c0,0.92-0.348,1.665-1.048,2.23c-0.697,0.568-1.621,0.851-2.769,0.851c-0.781,0-1.504-0.091-2.174-0.27
		C67.951,21.173,67.323,20.9,66.738,20.532 M65.762,16.811c0,0.647-0.126,1.261-0.375,1.841c-0.249,0.583-0.61,1.106-1.084,1.567
		c-0.484,0.462-1.021,0.814-1.615,1.051s-1.228,0.355-1.895,0.355c-0.682,0-1.318-0.119-1.916-0.355
		c-0.595-0.237-1.126-0.589-1.595-1.051c-0.471-0.45-0.829-0.969-1.075-1.552c-0.246-0.586-0.369-1.203-0.369-1.856
		c0-0.659,0.123-1.279,0.366-1.859c0.243-0.583,0.6-1.106,1.078-1.568c0.462-0.456,0.991-0.802,1.585-1.033
		c0.597-0.231,1.237-0.346,1.925-0.346c0.685,0,1.324,0.115,1.916,0.346c0.595,0.231,1.123,0.577,1.595,1.033
		c0.48,0.468,0.844,0.993,1.09,1.577C65.639,15.541,65.762,16.157,65.762,16.811z M62.648,16.811c0-0.672-0.168-1.2-0.501-1.586
		c-0.333-0.386-0.787-0.577-1.354-0.577c-0.576,0-1.03,0.191-1.36,0.577c-0.333,0.386-0.498,0.914-0.498,1.586
		c0,0.671,0.165,1.197,0.492,1.58c0.33,0.383,0.784,0.574,1.366,0.574c0.573,0,1.027-0.191,1.357-0.574
		C62.483,18.008,62.648,17.482,62.648,16.811z M54.544,17.415h-6.756c0.006,0.696,0.183,1.23,0.528,1.607s0.835,0.565,1.468,0.565
		c0.474,0,0.877-0.091,1.201-0.27c0.327-0.182,0.573-0.453,0.744-0.808l2.357,0.963c-0.282,0.687-0.781,1.218-1.495,1.592
		c-0.715,0.374-1.591,0.562-2.63,0.562c-1.549,0-2.789-0.435-3.726-1.303c-0.934-0.869-1.402-2.017-1.402-3.442
		c0-1.398,0.468-2.561,1.402-3.488c0.937-0.927,2.12-1.389,3.549-1.389c1.471,0,2.633,0.468,3.483,1.407
		c0.85,0.936,1.276,2.221,1.276,3.852v0.152H54.544z M51.457,15.626c-0.06-0.511-0.252-0.918-0.576-1.228
		c-0.324-0.307-0.727-0.462-1.201-0.462c-0.511,0-0.916,0.14-1.219,0.422c-0.3,0.283-0.501,0.705-0.603,1.267L51.457,15.626
		L51.457,15.626z M39.458,21.28v-6.747h-1.327v-2.242h1.327v-2.68h3.087v2.68h1.327v2.242h-1.327v6.747H39.458z M37.047,15.246
		c-0.307-0.273-0.598-0.471-0.88-0.596c-0.282-0.124-0.577-0.188-0.889-0.188c-0.622,0-1.117,0.207-1.483,0.623
		s-0.549,0.978-0.549,1.689c0,0.69,0.189,1.237,0.571,1.647c0.381,0.41,0.895,0.614,1.54,0.614c0.318,0,0.615-0.064,0.895-0.191
		c0.28-0.128,0.544-0.325,0.796-0.593v2.752c-0.375,0.213-0.751,0.371-1.126,0.471s-0.763,0.152-1.162,0.152
		c-1.366,0-2.471-0.444-3.321-1.331c-0.847-0.887-1.27-2.054-1.27-3.503c0-1.406,0.432-2.555,1.297-3.448s1.976-1.34,3.33-1.34
		c0.451,0,0.859,0.046,1.222,0.134s0.709,0.231,1.03,0.428v2.68C37.048,15.246,37.047,15.246,37.047,15.246z M25.951,8.236
		l-2.56,2.836h-1.354l1.442-2.836H25.951z M28.3,12.29v8.989h-2.876v-1.461c-0.411,0.623-0.871,1.082-1.384,1.37
		c-0.513,0.292-1.117,0.438-1.808,0.438c-1.186,0-2.132-0.438-2.843-1.312c-0.709-0.875-1.063-2.048-1.063-3.521
		c0-1.464,0.372-2.631,1.114-3.494c0.742-0.863,1.739-1.294,2.994-1.294c0.669,0,1.246,0.143,1.729,0.431
		c0.483,0.289,0.898,0.732,1.243,1.331v-1.476H28.3V12.29z M25.547,16.774c0-0.702-0.186-1.255-0.555-1.665s-0.874-0.614-1.51-0.614
		c-0.639,0-1.144,0.203-1.51,0.611c-0.366,0.404-0.549,0.963-0.549,1.668c0,0.699,0.186,1.252,0.555,1.656
		c0.368,0.404,0.87,0.604,1.503,0.604c0.637,0,1.141-0.2,1.51-0.604C25.361,18.026,25.547,17.473,25.547,16.774z M9.408,21.28V8.25
		h3.51v9.986h4.363v3.044H9.408z"/>
	<path fill="#EB2227" d="M119.097,60.407l7.325-31.881h8.587l7.279,31.881h-7.339l-0.938-4.072h-6.654l-0.938,4.072H119.097z
		 M129.037,49.085h3.332l-1.673-10.863L129.037,49.085z"/>
	<path fill="#EB2227" d="M190.188,60.407l7.324-31.881h8.587l7.279,31.881h-7.339l-0.938-4.072h-6.654l-0.938,4.072H190.188z
		 M200.128,49.085h3.332l-1.673-10.863L200.128,49.085z"/>
	<polygon fill="#EB2227" points="9.408,28.489 16.432,28.489 16.432,62.505 213.378,62.505 213.378,69.639 9.408,69.639 	"/>
	<polygon fill="#EB2227" points="146.263,60.407 146.263,28.526 153.512,28.526 159.933,45.2 159.726,42.683 159.726,39.223 
		159.726,28.526 166.769,28.526 166.769,60.407 159.519,60.407 153.201,43.837 153.409,46.144 153.409,48.871 153.409,60.407 	"/>
	<polygon fill="#EB2227" points="101.24,28.6 108.66,28.6 108.659,53.155 115.846,53.217 115.846,60.351 101.24,60.351 	"/>
	<path fill="#EB2227" d="M70.228,60.351V35.796h4.228v-7.195c-6.274,0-9.432,0-15.706,0v7.195h4.255v24.555H70.228z"/>
	<path fill="#EB2227" d="M18.047,60.407l7.324-31.881h8.587l7.279,31.881h-7.339l-0.938-4.072h-6.654l-0.938,4.072H18.047z
		 M27.987,49.085h3.332l-1.673-10.863L27.987,49.085z"/>
	<path fill="#EB2227" d="M56.149,41.19c-3.745-4.55-7.893-2.089-7.893,3.397c0,6.289,3.973,7.066,7.992,2.997l-0.197,11.39
		c-10.224,5.345-14.96-6.19-14.898-14.387c0-8.559,5.014-20.488,14.997-14.387L56.149,41.19L56.149,41.19z"/>
	<path fill="#EB2227" d="M170.736,60.407V28.6h5.889h1.343c8.666,0.731,12.295,6.657,12.295,15.903v1.151
		c-0.773,7.811-3.035,13.366-12.605,14.752h-1.55L170.736,60.407L170.736,60.407z M183.034,44.504c0-3.566-1.275-8.686-5.253-8.686
		v17.315C181.563,53.132,183.034,47.827,183.034,44.504z"/>
</g>
<path fill="#EB2227" d="M86.892,29.107c-5.744,0-10.403,7.125-10.404,15.914c0,8.789,4.659,15.914,10.404,15.914
	s10.404-7.125,10.404-15.914S92.636,29.107,86.892,29.107z M83.687,45.021c0-3.372,1.435-6.106,3.205-6.106s3.206,2.734,3.206,6.106
	s-1.435,6.106-3.206,6.106C85.122,51.127,83.687,48.393,83.687,45.021z"/>
</svg>
